<mxfile host="app.diagrams.net" modified="2022-11-09T05:32:47.148Z" agent="5.0 (Macintosh; Intel Mac OS X 10_15_7) AppleWebKit/537.36 (KHTML, like Gecko) Chrome/107.0.0.0 Safari/537.36" etag="cBLM_1ycEtA6IN5FMCoN" version="20.5.3" type="github">
  <diagram id="f6mKbpGXD1SB-0XBqbad" name="Page-1">
    <mxGraphModel dx="1426" dy="794" grid="1" gridSize="10" guides="1" tooltips="1" connect="1" arrows="1" fold="1" page="1" pageScale="1" pageWidth="850" pageHeight="1100" math="0" shadow="0">
      <root>
        <mxCell id="0" />
        <mxCell id="1" parent="0" />
        <mxCell id="HqmG7QS4N1iPkq1eYaqS-1" value="&lt;font style=&quot;font-size: 16px&quot;&gt;EVM&lt;/font&gt;" style="shape=cube;whiteSpace=wrap;html=1;boundedLbl=1;backgroundOutline=1;darkOpacity=0.05;darkOpacity2=0.1;" vertex="1" parent="1">
          <mxGeometry x="160" y="390" width="120" height="60" as="geometry" />
        </mxCell>
        <mxCell id="HqmG7QS4N1iPkq1eYaqS-2" value="&lt;font style=&quot;font-size: 16px&quot;&gt;PoW&lt;/font&gt;" style="shape=cube;whiteSpace=wrap;html=1;boundedLbl=1;backgroundOutline=1;darkOpacity=0.05;darkOpacity2=0.1;" vertex="1" parent="1">
          <mxGeometry x="160" y="370" width="120" height="40" as="geometry" />
        </mxCell>
        <mxCell id="HqmG7QS4N1iPkq1eYaqS-3" value="&lt;font style=&quot;font-size: 16px&quot;&gt;EVM&lt;/font&gt;" style="shape=cube;whiteSpace=wrap;html=1;boundedLbl=1;backgroundOutline=1;darkOpacity=0.05;darkOpacity2=0.1;" vertex="1" parent="1">
          <mxGeometry x="370" y="390" width="120" height="60" as="geometry" />
        </mxCell>
        <mxCell id="HqmG7QS4N1iPkq1eYaqS-4" value="&lt;font style=&quot;font-size: 16px&quot;&gt;PoW&lt;/font&gt;" style="shape=cube;whiteSpace=wrap;html=1;boundedLbl=1;backgroundOutline=1;darkOpacity=0.05;darkOpacity2=0.1;" vertex="1" parent="1">
          <mxGeometry x="370" y="370" width="120" height="40" as="geometry" />
        </mxCell>
        <mxCell id="HqmG7QS4N1iPkq1eYaqS-7" value="&lt;font style=&quot;font-size: 16px&quot;&gt;EVM&lt;/font&gt;" style="shape=cube;whiteSpace=wrap;html=1;boundedLbl=1;backgroundOutline=1;darkOpacity=0.05;darkOpacity2=0.1;" vertex="1" parent="1">
          <mxGeometry x="580" y="390" width="120" height="60" as="geometry" />
        </mxCell>
        <mxCell id="HqmG7QS4N1iPkq1eYaqS-8" value="&lt;font style=&quot;font-size: 16px&quot;&gt;PoW&lt;/font&gt;" style="shape=cube;whiteSpace=wrap;html=1;boundedLbl=1;backgroundOutline=1;darkOpacity=0.05;darkOpacity2=0.1;" vertex="1" parent="1">
          <mxGeometry x="580" y="370" width="120" height="40" as="geometry" />
        </mxCell>
        <mxCell id="HqmG7QS4N1iPkq1eYaqS-9" value="&lt;font style=&quot;font-size: 16px&quot;&gt;EVM&lt;/font&gt;" style="shape=cube;whiteSpace=wrap;html=1;boundedLbl=1;backgroundOutline=1;darkOpacity=0.05;darkOpacity2=0.1;" vertex="1" parent="1">
          <mxGeometry x="790" y="390" width="120" height="60" as="geometry" />
        </mxCell>
        <mxCell id="HqmG7QS4N1iPkq1eYaqS-10" value="&lt;font style=&quot;font-size: 16px&quot;&gt;PoW&lt;/font&gt;" style="shape=cube;whiteSpace=wrap;html=1;boundedLbl=1;backgroundOutline=1;darkOpacity=0.05;darkOpacity2=0.1;" vertex="1" parent="1">
          <mxGeometry x="790" y="370" width="120" height="40" as="geometry" />
        </mxCell>
        <mxCell id="HqmG7QS4N1iPkq1eYaqS-12" value="&lt;span style=&quot;font-size: 16px;&quot;&gt;Ethereum&lt;/span&gt;" style="text;html=1;strokeColor=none;fillColor=none;align=center;verticalAlign=middle;whiteSpace=wrap;rounded=0;fontSize=12;" vertex="1" parent="1">
          <mxGeometry y="395" width="150" height="30" as="geometry" />
        </mxCell>
        <mxCell id="HqmG7QS4N1iPkq1eYaqS-13" value="&lt;span style=&quot;font-size: 16px;&quot;&gt;Beacon Chain&lt;/span&gt;" style="shape=cube;whiteSpace=wrap;html=1;boundedLbl=1;backgroundOutline=1;darkOpacity=0.05;darkOpacity2=0.1;" vertex="1" parent="1">
          <mxGeometry x="160" y="260" width="120" height="70" as="geometry" />
        </mxCell>
        <mxCell id="HqmG7QS4N1iPkq1eYaqS-14" value="&lt;span style=&quot;font-size: 16px;&quot;&gt;Beacon Chain&lt;/span&gt;" style="shape=cube;whiteSpace=wrap;html=1;boundedLbl=1;backgroundOutline=1;darkOpacity=0.05;darkOpacity2=0.1;" vertex="1" parent="1">
          <mxGeometry x="370" y="260" width="120" height="70" as="geometry" />
        </mxCell>
        <mxCell id="HqmG7QS4N1iPkq1eYaqS-15" value="&lt;span style=&quot;font-size: 16px;&quot;&gt;Beacon Chain&lt;/span&gt;" style="shape=cube;whiteSpace=wrap;html=1;boundedLbl=1;backgroundOutline=1;darkOpacity=0.05;darkOpacity2=0.1;" vertex="1" parent="1">
          <mxGeometry x="580" y="260" width="120" height="70" as="geometry" />
        </mxCell>
        <mxCell id="HqmG7QS4N1iPkq1eYaqS-16" value="&lt;span style=&quot;font-size: 16px;&quot;&gt;Beacon Chain&lt;/span&gt;" style="shape=cube;whiteSpace=wrap;html=1;boundedLbl=1;backgroundOutline=1;darkOpacity=0.05;darkOpacity2=0.1;" vertex="1" parent="1">
          <mxGeometry x="790" y="260" width="120" height="70" as="geometry" />
        </mxCell>
        <mxCell id="HqmG7QS4N1iPkq1eYaqS-17" value="" style="endArrow=classic;html=1;rounded=0;strokeWidth=1.5;fontSize=16;exitX=0;exitY=0;exitDx=0;exitDy=20;exitPerimeter=0;" edge="1" parent="1" source="HqmG7QS4N1iPkq1eYaqS-3">
          <mxGeometry width="50" height="50" relative="1" as="geometry">
            <mxPoint x="350" y="409.5" as="sourcePoint" />
            <mxPoint x="280" y="410" as="targetPoint" />
          </mxGeometry>
        </mxCell>
        <mxCell id="HqmG7QS4N1iPkq1eYaqS-18" value="" style="endArrow=classic;html=1;rounded=0;strokeWidth=1.5;fontSize=16;exitX=0;exitY=0;exitDx=0;exitDy=20;exitPerimeter=0;" edge="1" parent="1">
          <mxGeometry width="50" height="50" relative="1" as="geometry">
            <mxPoint x="580" y="410" as="sourcePoint" />
            <mxPoint x="490" y="410" as="targetPoint" />
          </mxGeometry>
        </mxCell>
        <mxCell id="HqmG7QS4N1iPkq1eYaqS-19" value="" style="endArrow=classic;html=1;rounded=0;strokeWidth=1.5;fontSize=16;exitX=0;exitY=0;exitDx=0;exitDy=20;exitPerimeter=0;" edge="1" parent="1">
          <mxGeometry width="50" height="50" relative="1" as="geometry">
            <mxPoint x="790" y="410" as="sourcePoint" />
            <mxPoint x="700" y="410" as="targetPoint" />
          </mxGeometry>
        </mxCell>
        <mxCell id="HqmG7QS4N1iPkq1eYaqS-20" value="" style="endArrow=classic;html=1;rounded=0;strokeWidth=1.5;fontSize=16;exitX=0;exitY=0;exitDx=0;exitDy=20;exitPerimeter=0;" edge="1" parent="1">
          <mxGeometry width="50" height="50" relative="1" as="geometry">
            <mxPoint x="370" y="294.5" as="sourcePoint" />
            <mxPoint x="280" y="294.5" as="targetPoint" />
          </mxGeometry>
        </mxCell>
        <mxCell id="HqmG7QS4N1iPkq1eYaqS-21" value="" style="endArrow=classic;html=1;rounded=0;strokeWidth=1.5;fontSize=16;exitX=0;exitY=0;exitDx=0;exitDy=20;exitPerimeter=0;" edge="1" parent="1">
          <mxGeometry width="50" height="50" relative="1" as="geometry">
            <mxPoint x="580" y="294.5" as="sourcePoint" />
            <mxPoint x="490" y="294.5" as="targetPoint" />
          </mxGeometry>
        </mxCell>
        <mxCell id="HqmG7QS4N1iPkq1eYaqS-22" value="" style="endArrow=classic;html=1;rounded=0;strokeWidth=1.5;fontSize=16;exitX=0;exitY=0;exitDx=0;exitDy=20;exitPerimeter=0;" edge="1" parent="1">
          <mxGeometry width="50" height="50" relative="1" as="geometry">
            <mxPoint x="790" y="294.5" as="sourcePoint" />
            <mxPoint x="700" y="294.5" as="targetPoint" />
          </mxGeometry>
        </mxCell>
      </root>
    </mxGraphModel>
  </diagram>
</mxfile>
